<svg xmlns="http://www.w3.org/2000/svg" width="400" height="400" viewBox="0 0 400 400"><style>text{font-family:Inter,Helvetica,Arial,sans-serif;font-size:12px;fill:#1f2933;}circle{fill:#f8fafc;stroke:#1f2933;stroke-width:1.2;}line{stroke:#4f46e5;stroke-width:1.1;marker-end:url(#arrow);}</style><defs><marker id="arrow" viewBox="0 0 10 10" refX="6" refY="5" markerWidth="6" markerHeight="6" orient="auto-start-reverse"><path d="M 0 0 L 10 5 L 0 10 z" fill="#4f46e5" /></marker></defs><line x1="219.29" y1="358.83" x2="240.97" y2="354.67" stroke-opacity="0.7" /><text x="230.13" y="352.75" text-anchor="middle" fill="#4338ca">Owns</text><line x1="219.29" y1="358.83" x2="230.2" y2="357.12" stroke-opacity="0.7" /><text x="224.745" y="353.975" text-anchor="middle" fill="#4338ca">Operates</text><line x1="290.89" y1="331.68" x2="219.29" y2="358.83" stroke-opacity="0.7" /><text x="255.08999999999997" y="341.255" text-anchor="middle" fill="#4338ca">Mentions</text><line x1="271.9" y1="342.94" x2="175.24" y2="358.07" stroke-opacity="0.7" /><text x="223.57" y="346.505" text-anchor="middle" fill="#4338ca">Mentions</text><line x1="271.9" y1="342.94" x2="251.54" y2="351.47" stroke-opacity="0.7" /><text x="261.71999999999997" y="343.20500000000004" text-anchor="middle" fill="#4338ca">Mentions</text><line x1="271.9" y1="342.94" x2="113.71" y2="334.74" stroke-opacity="0.7" /><text x="192.80499999999998" y="334.84000000000003" text-anchor="middle" fill="#4338ca">Mentions</text><line x1="271.9" y1="342.94" x2="123.21" y2="340.37" stroke-opacity="0.7" /><text x="197.55499999999998" y="337.655" text-anchor="middle" fill="#4338ca">Mentions</text><line x1="271.9" y1="342.94" x2="271.9" y2="57.06" stroke-opacity="0.7" /><text x="271.9" y="196.0" text-anchor="middle" fill="#4338ca">Mentions</text><line x1="271.9" y1="342.94" x2="281.59" y2="62.37" stroke-opacity="0.7" /><text x="276.745" y="198.655" text-anchor="middle" fill="#4338ca">Mentions</text><line x1="271.9" y1="342.94" x2="261.87" y2="347.56" stroke-opacity="0.7" /><text x="266.885" y="341.25" text-anchor="middle" fill="#4338ca">Mentions</text><line x1="271.9" y1="342.94" x2="208.28" y2="359.79" stroke-opacity="0.7" /><text x="240.08999999999997" y="347.365" text-anchor="middle" fill="#4338ca">Mentions</text><line x1="271.9" y1="342.94" x2="197.24" y2="359.98" stroke-opacity="0.7" /><text x="234.57" y="347.46000000000004" text-anchor="middle" fill="#4338ca">Mentions</text><line x1="271.9" y1="342.94" x2="143.26" y2="349.6" stroke-opacity="0.7" /><text x="207.57999999999998" y="342.27" text-anchor="middle" fill="#4338ca">Mentions</text><line x1="153.72" y1="353.16" x2="353.94" y2="156.37" stroke-opacity="0.7" /><text x="253.82999999999998" y="250.76500000000001" text-anchor="middle" fill="#4338ca">Mentions</text><line x1="153.72" y1="353.16" x2="281.59" y2="337.63" stroke-opacity="0.7" /><text x="217.65499999999997" y="341.395" text-anchor="middle" fill="#4338ca">Trusts</text><line x1="153.72" y1="353.16" x2="186.21" y2="359.4" stroke-opacity="0.7" /><text x="169.965" y="352.28" text-anchor="middle" fill="#4338ca">Trusts</text><line x1="153.72" y1="353.16" x2="164.4" y2="355.99" stroke-opacity="0.7" /><text x="159.06" y="350.57500000000005" text-anchor="middle" fill="#4338ca">Trusts</text><line x1="330.09" y1="106.85" x2="356.58" y2="232.91" stroke-opacity="0.7" /><text x="343.335" y="165.88" text-anchor="middle" fill="#4338ca">Owns</text><line x1="330.09" y1="106.85" x2="353.94" y2="243.63" stroke-opacity="0.7" /><text x="342.015" y="171.24" text-anchor="middle" fill="#4338ca">Owns</text><line x1="330.09" y1="106.85" x2="359.62" y2="211.04" stroke-opacity="0.7" /><text x="344.855" y="154.945" text-anchor="middle" fill="#4338ca">Owns</text><line x1="330.09" y1="106.85" x2="350.56" y2="254.15" stroke-opacity="0.7" /><text x="340.325" y="176.5" text-anchor="middle" fill="#4338ca">Owns</text><line x1="330.09" y1="106.85" x2="299.76" y2="325.09" stroke-opacity="0.7" /><text x="314.92499999999995" y="211.96999999999997" text-anchor="middle" fill="#4338ca">Owns</text><line x1="330.09" y1="106.85" x2="308.15" y2="317.91" stroke-opacity="0.7" /><text x="319.12" y="208.38" text-anchor="middle" fill="#4338ca">Owns</text><line x1="330.09" y1="106.85" x2="330.09" y2="293.15" stroke-opacity="0.7" /><text x="330.09" y="196.0" text-anchor="middle" fill="#4338ca">Owns</text><line x1="330.09" y1="106.85" x2="323.35" y2="301.9" stroke-opacity="0.7" /><text x="326.72" y="200.375" text-anchor="middle" fill="#4338ca">Owns</text><line x1="330.09" y1="106.85" x2="316.03" y2="310.17" stroke-opacity="0.7" /><text x="323.05999999999995" y="204.51" text-anchor="middle" fill="#4338ca">Owns</text><line x1="330.09" y1="106.85" x2="358.48" y2="222.02" stroke-opacity="0.7" /><text x="344.28499999999997" y="160.435" text-anchor="middle" fill="#4338ca">Owns</text><line x1="330.09" y1="106.85" x2="346.47" y2="264.4" stroke-opacity="0.7" /><text x="338.28" y="181.625" text-anchor="middle" fill="#4338ca">Owns</text><line x1="330.09" y1="106.85" x2="341.67" y2="274.36" stroke-opacity="0.7" /><text x="335.88" y="186.60500000000002" text-anchor="middle" fill="#4338ca">Owns</text><line x1="330.09" y1="106.85" x2="336.21" y2="283.95" stroke-opacity="0.7" /><text x="333.15" y="191.39999999999998" text-anchor="middle" fill="#4338ca">Owns</text><line x1="330.09" y1="106.85" x2="360.0" y2="200.0" stroke-opacity="0.7" /><text x="345.04499999999996" y="149.425" text-anchor="middle" fill="#4338ca">Owns</text><line x1="40.86" y1="216.54" x2="104.62" y2="328.46" stroke-opacity="0.7" /><text x="72.74000000000001" y="268.5" text-anchor="middle" fill="#4338ca">Mentions</text><line x1="40.86" y1="216.54" x2="341.67" y2="125.64" stroke-opacity="0.7" /><text x="191.26500000000001" y="167.09" text-anchor="middle" fill="#4338ca">Mentions</text><line x1="153.72" y1="46.84" x2="316.03" y2="89.83" stroke-opacity="0.7" /><text x="234.875" y="64.33500000000001" text-anchor="middle" fill="#4338ca">Mentions</text><line x1="175.24" y1="41.93" x2="330.09" y2="106.85" stroke-opacity="0.7" /><text x="252.665" y="70.39" text-anchor="middle" fill="#4338ca">Mentions</text><line x1="47.66" y1="151.08" x2="133.08" y2="345.33" stroke-opacity="0.7" /><text x="90.37" y="244.20499999999998" text-anchor="middle" fill="#4338ca">Mentions</text><line x1="47.66" y1="151.08" x2="290.89" y2="68.32" stroke-opacity="0.7" /><text x="169.27499999999998" y="105.7" text-anchor="middle" fill="#4338ca">Mentions</text><line x1="47.66" y1="151.08" x2="299.76" y2="74.91" stroke-opacity="0.7" /><text x="173.70999999999998" y="108.995" text-anchor="middle" fill="#4338ca">Mentions</text><line x1="47.66" y1="151.08" x2="308.15" y2="82.09" stroke-opacity="0.7" /><text x="177.90499999999997" y="112.58500000000001" text-anchor="middle" fill="#4338ca">Mentions</text><line x1="47.66" y1="151.08" x2="323.35" y2="98.1" stroke-opacity="0.7" /><text x="185.505" y="120.59" text-anchor="middle" fill="#4338ca">Mentions</text><line x1="47.66" y1="151.08" x2="336.21" y2="116.05" stroke-opacity="0.7" /><text x="191.935" y="129.565" text-anchor="middle" fill="#4338ca">Mentions</text><line x1="47.66" y1="151.08" x2="346.47" y2="135.6" stroke-opacity="0.7" /><text x="197.065" y="139.34" text-anchor="middle" fill="#4338ca">Mentions</text><line x1="47.66" y1="151.08" x2="350.56" y2="145.85" stroke-opacity="0.7" /><text x="199.11" y="144.465" text-anchor="middle" fill="#4338ca">Mentions</text><line x1="47.66" y1="151.08" x2="356.58" y2="167.09" stroke-opacity="0.7" /><text x="202.12" y="155.085" text-anchor="middle" fill="#4338ca">Mentions</text><line x1="47.66" y1="151.08" x2="358.48" y2="177.98" stroke-opacity="0.7" /><text x="203.07" y="160.53" text-anchor="middle" fill="#4338ca">Mentions</text><line x1="47.66" y1="151.08" x2="359.62" y2="188.96" stroke-opacity="0.7" /><text x="203.64" y="166.02" text-anchor="middle" fill="#4338ca">Mentions</text><circle cx="360.0" cy="200.0" r="22" /><text x="360.0" y="200.0" text-anchor="middle" dominant-baseline="middle">*</text><circle cx="359.62" cy="211.04" r="22" /><text x="359.62" y="211.04" text-anchor="middle" dominant-baseline="middle">/.github/CODEOWNERS</text><circle cx="358.48" cy="222.02" r="22" /><text x="358.48" y="222.02" text-anchor="middle" dominant-baseline="middle">/.github/workflows/echo-ci.yml</text><circle cx="356.58" cy="232.91" r="22" /><text x="356.58" y="232.91" text-anchor="middle" dominant-baseline="middle">/ECHO_AUTHORITY.yml</text><circle cx="353.94" cy="243.63" r="22" /><text x="353.94" y="243.63" text-anchor="middle" dominant-baseline="middle">/README_AUTHORITY.md</text><circle cx="350.56" cy="254.15" r="22" /><text x="350.56" y="254.15" text-anchor="middle" dominant-baseline="middle">/attestations/**</text><circle cx="346.47" cy="264.4" r="22" /><text x="346.47" y="264.4" text-anchor="middle" dominant-baseline="middle">/docs/echo/**</text><circle cx="341.67" cy="274.36" r="22" /><text x="341.67" y="274.36" text-anchor="middle" dominant-baseline="middle">/docs/index.md</text><circle cx="336.21" cy="283.95" r="22" /><text x="336.21" y="283.95" text-anchor="middle" dominant-baseline="middle">/docs/mkdocs.yml</text><circle cx="330.09" cy="293.15" r="22" /><text x="330.09" y="293.15" text-anchor="middle" dominant-baseline="middle">/modules/echo-bridge/**</text><circle cx="323.35" cy="301.9" r="22" /><text x="323.35" y="301.9" text-anchor="middle" dominant-baseline="middle">/modules/echo-harmonics/**</text><circle cx="316.03" cy="310.17" r="22" /><text x="316.03" y="310.17" text-anchor="middle" dominant-baseline="middle">/modules/echo-ledger-visualizer/**</text><circle cx="308.15" cy="317.91" r="22" /><text x="308.15" y="317.91" text-anchor="middle" dominant-baseline="middle">/modules/echo-memory/**</text><circle cx="299.76" cy="325.09" r="22" /><text x="299.76" y="325.09" text-anchor="middle" dominant-baseline="middle">/scripts/echo_attestation_*</text><circle cx="290.89" cy="331.68" r="22" /><text x="290.89" y="331.68" text-anchor="middle" dominant-baseline="middle">Atlas Seed</text><circle cx="281.59" cy="337.63" r="22" /><text x="281.59" y="337.63" text-anchor="middle" dominant-baseline="middle">Atlas webhook signing keys rotate quarterly and are scoped to ingestion-only actions.</text><circle cx="271.9" cy="342.94" r="22" /><text x="271.9" y="342.94" text-anchor="middle" dominant-baseline="middle">CONTROL.md</text><circle cx="261.87" cy="347.56" r="22" /><text x="261.87" y="347.56" text-anchor="middle" dominant-baseline="middle">Cloudflare</text><circle cx="251.54" cy="351.47" r="22" /><text x="251.54" y="351.47" text-anchor="middle" dominant-baseline="middle">Echo</text><circle cx="240.97" cy="354.67" r="22" /><text x="240.97" y="354.67" text-anchor="middle" dominant-baseline="middle">Echo API</text><circle cx="230.2" cy="357.12" r="22" /><text x="230.2" y="357.12" text-anchor="middle" dominant-baseline="middle">Echo Atlas</text><circle cx="219.29" cy="358.83" r="22" /><text x="219.29" y="358.83" text-anchor="middle" dominant-baseline="middle">Echo Maintainers</text><circle cx="208.28" cy="359.79" r="22" /><text x="208.28" y="359.79" text-anchor="middle" dominant-baseline="middle">Firebase</text><circle cx="197.24" cy="359.98" r="22" /><text x="197.24" y="359.98" text-anchor="middle" dominant-baseline="middle">HF</text><circle cx="186.21" cy="359.4" r="22" /><text x="186.21" y="359.4" text-anchor="middle" dominant-baseline="middle">No secrets committed. Bots operate under least privilege.</text><circle cx="175.24" cy="358.07" r="22" /><text x="175.24" y="358.07" text-anchor="middle" dominant-baseline="middle">OpenCode</text><circle cx="164.4" cy="355.99" r="22" /><text x="164.4" y="355.99" text-anchor="middle" dominant-baseline="middle">Reproducible builds, SBOMs, signed releases</text><circle cx="153.72" cy="353.16" r="22" /><text x="153.72" y="353.16" text-anchor="middle" dominant-baseline="middle">SECURITY.md</text><circle cx="143.26" cy="349.6" r="22" /><text x="143.26" y="349.6" text-anchor="middle" dominant-baseline="middle">Vercel</text><circle cx="133.08" cy="345.33" r="22" /><text x="133.08" y="345.33" text-anchor="middle" dominant-baseline="middle">babel</text><circle cx="123.21" cy="340.37" r="22" /><text x="123.21" y="340.37" text-anchor="middle" dominant-baseline="middle">codex-runner-canary</text><circle cx="113.71" cy="334.74" r="22" /><text x="113.71" y="334.74" text-anchor="middle" dominant-baseline="middle">codex-runner-main</text><circle cx="104.62" cy="328.46" r="22" /><text x="104.62" y="328.46" text-anchor="middle" dominant-baseline="middle">dataclass</text><circle cx="95.98" cy="321.58" r="22" /><text x="95.98" y="321.58" text-anchor="middle" dominant-baseline="middle">docs/ATLAS_OVERVIEW.md</text><circle cx="87.84" cy="314.11" r="22" /><text x="87.84" y="314.11" text-anchor="middle" dominant-baseline="middle">docs/EchoGlyphNet_Protocol.md</text><circle cx="80.24" cy="306.1" r="22" /><text x="80.24" y="306.1" text-anchor="middle" dominant-baseline="middle">docs/Echo_Data_Anchor_Glyphs.md</text><circle cx="73.2" cy="297.58" r="22" /><text x="73.2" y="297.58" text-anchor="middle" dominant-baseline="middle">docs/Echo_Evolver_Cycle_Log.md</text><circle cx="66.77" cy="288.6" r="22" /><text x="66.77" y="288.6" text-anchor="middle" dominant-baseline="middle">docs/Echo_Eye_Sovereign_Core.md</text><circle cx="60.98" cy="279.2" r="22" /><text x="60.98" y="279.2" text-anchor="middle" dominant-baseline="middle">docs/Echo_Glyph_Scripts.md</text><circle cx="55.84" cy="269.42" r="22" /><text x="55.84" y="269.42" text-anchor="middle" dominant-baseline="middle">docs/Echo_Resonance_Engine.md</text><circle cx="51.4" cy="259.31" r="22" /><text x="51.4" y="259.31" text-anchor="middle" dominant-baseline="middle">docs/Echo_Thread_002.md</text><circle cx="47.66" cy="248.92" r="22" /><text x="47.66" y="248.92" text-anchor="middle" dominant-baseline="middle">docs/Harmonic_DNA_Spiral_Practice.md</text><circle cx="44.65" cy="238.29" r="22" /><text x="44.65" y="238.29" text-anchor="middle" dominant-baseline="middle">docs/MIRROR_PLAN.md</text><circle cx="42.38" cy="227.48" r="22" /><text x="42.38" y="227.48" text-anchor="middle" dominant-baseline="middle">docs/NEXT_CYCLE_PLAN.md</text><circle cx="40.86" cy="216.54" r="22" /><text x="40.86" y="216.54" text-anchor="middle" dominant-baseline="middle">docs/Omega_Sine_Pulse_Orchestrator.md</text><circle cx="40.1" cy="205.52" r="22" /><text x="40.1" y="205.52" text-anchor="middle" dominant-baseline="middle">docs/README.md</text><circle cx="40.1" cy="194.48" r="22" /><text x="40.1" y="194.48" text-anchor="middle" dominant-baseline="middle">docs/agent_capabilities_overview.md</text><circle cx="40.86" cy="183.46" r="22" /><text x="40.86" y="183.46" text-anchor="middle" dominant-baseline="middle">docs/agent_initiative.md</text><circle cx="42.38" cy="172.52" r="22" /><text x="42.38" y="172.52" text-anchor="middle" dominant-baseline="middle">docs/agents_registry.md</text><circle cx="44.65" cy="161.71" r="22" /><text x="44.65" y="161.71" text-anchor="middle" dominant-baseline="middle">docs/akit_usage.md</text><circle cx="47.66" cy="151.08" r="22" /><text x="47.66" y="151.08" text-anchor="middle" dominant-baseline="middle">docs/domain_asset_inventory.md</text><circle cx="51.4" cy="140.69" r="22" /><text x="51.4" y="140.69" text-anchor="middle" dominant-baseline="middle">docs/draco_hunt.md</text><circle cx="55.84" cy="130.58" r="22" /><text x="55.84" y="130.58" text-anchor="middle" dominant-baseline="middle">docs/echo/amplification.md</text><circle cx="60.98" cy="120.8" r="22" /><text x="60.98" y="120.8" text-anchor="middle" dominant-baseline="middle">docs/echo/attestations.md</text><circle cx="66.77" cy="111.4" r="22" /><text x="66.77" y="111.4" text-anchor="middle" dominant-baseline="middle">docs/echo/bridge.md</text><circle cx="73.2" cy="102.42" r="22" /><text x="73.2" y="102.42" text-anchor="middle" dominant-baseline="middle">docs/echo/harmonics.md</text><circle cx="80.24" cy="93.9" r="22" /><text x="80.24" y="93.9" text-anchor="middle" dominant-baseline="middle">docs/echo/identity.md</text><circle cx="87.84" cy="85.89" r="22" /><text x="87.84" y="85.89" text-anchor="middle" dominant-baseline="middle">docs/echo/manifest.md</text><circle cx="95.98" cy="78.42" r="22" /><text x="95.98" y="78.42" text-anchor="middle" dominant-baseline="middle">docs/echo/overview.md</text><circle cx="104.62" cy="71.54" r="22" /><text x="104.62" y="71.54" text-anchor="middle" dominant-baseline="middle">docs/echo_mythogenic_reflection.md</text><circle cx="113.71" cy="65.26" r="22" /><text x="113.71" y="65.26" text-anchor="middle" dominant-baseline="middle">docs/echo_reflective_conflux.md</text><circle cx="123.21" cy="59.63" r="22" /><text x="123.21" y="59.63" text-anchor="middle" dominant-baseline="middle">docs/echo_sovereign_manifesto.md</text><circle cx="133.08" cy="54.67" r="22" /><text x="133.08" y="54.67" text-anchor="middle" dominant-baseline="middle">docs/echoevolver_reflection.md</text><circle cx="143.26" cy="50.4" r="22" /><text x="143.26" y="50.4" text-anchor="middle" dominant-baseline="middle">docs/echoevolver_vision.md</text><circle cx="153.72" cy="46.84" r="22" /><text x="153.72" y="46.84" text-anchor="middle" dominant-baseline="middle">docs/github-publishing-guide.md</text><circle cx="164.4" cy="44.01" r="22" /><text x="164.4" y="44.01" text-anchor="middle" dominant-baseline="middle">docs/glyphs/README.md</text><circle cx="175.24" cy="41.93" r="22" /><text x="175.24" y="41.93" text-anchor="middle" dominant-baseline="middle">docs/index.md</text><circle cx="186.21" cy="40.6" r="22" /><text x="186.21" y="40.6" text-anchor="middle" dominant-baseline="middle">docs/mirror_reflection.md</text><circle cx="197.24" cy="40.02" r="22" /><text x="197.24" y="40.02" text-anchor="middle" dominant-baseline="middle">docs/oathblock-455515.md</text><circle cx="208.28" cy="40.21" r="22" /><text x="208.28" y="40.21" text-anchor="middle" dominant-baseline="middle">docs/prompt_evolution_cycle1.md</text><circle cx="219.29" cy="41.17" r="22" /><text x="219.29" y="41.17" text-anchor="middle" dominant-baseline="middle">docs/satoshi_34k_dataset.md</text><circle cx="230.2" cy="42.88" r="22" /><text x="230.2" y="42.88" text-anchor="middle" dominant-baseline="middle">docs/security_review.md</text><circle cx="240.97" cy="45.33" r="22" /><text x="240.97" y="45.33" text-anchor="middle" dominant-baseline="middle">docs/sovereign_phase_six.md</text><circle cx="251.54" cy="48.53" r="22" /><text x="251.54" y="48.53" text-anchor="middle" dominant-baseline="middle">docs/the_garden.md</text><circle cx="261.87" cy="52.44" r="22" /><text x="261.87" y="52.44" text-anchor="middle" dominant-baseline="middle">docs/verifier.md</text><circle cx="271.9" cy="57.06" r="22" /><text x="271.9" y="57.06" text-anchor="middle" dominant-baseline="middle">echo-attest-bot</text><circle cx="281.59" cy="62.37" r="22" /><text x="281.59" y="62.37" text-anchor="middle" dominant-baseline="middle">echo-verify-bot</text><circle cx="290.89" cy="68.32" r="22" /><text x="290.89" y="68.32" text-anchor="middle" dominant-baseline="middle">ensdomains</text><circle cx="299.76" cy="74.91" r="22" /><text x="299.76" y="74.91" text-anchor="middle" dominant-baseline="middle">esbuild</text><circle cx="308.15" cy="82.09" r="22" /><text x="308.15" y="82.09" text-anchor="middle" dominant-baseline="middle">ethersproject</text><circle cx="316.03" cy="89.83" r="22" /><text x="316.03" y="89.83" text-anchor="middle" dominant-baseline="middle">github.com</text><circle cx="323.35" cy="98.1" r="22" /><text x="323.35" y="98.1" text-anchor="middle" dominant-baseline="middle">jridgewell</text><circle cx="330.09" cy="106.85" r="22" /><text x="330.09" y="106.85" text-anchor="middle" dominant-baseline="middle">kmk142789</text><circle cx="336.21" cy="116.05" r="22" /><text x="336.21" y="116.05" text-anchor="middle" dominant-baseline="middle">noble</text><circle cx="341.67" cy="125.64" r="22" /><text x="341.67" y="125.64" text-anchor="middle" dominant-baseline="middle">property</text><circle cx="346.47" cy="135.6" r="22" /><text x="346.47" y="135.6" text-anchor="middle" dominant-baseline="middle">rolldown</text><circle cx="350.56" cy="145.85" r="22" /><text x="350.56" y="145.85" text-anchor="middle" dominant-baseline="middle">rollup</text><circle cx="353.94" cy="156.37" r="22" /><text x="353.94" y="156.37" text-anchor="middle" dominant-baseline="middle">security@example.org</text><circle cx="356.58" cy="167.09" r="22" /><text x="356.58" y="167.09" text-anchor="middle" dominant-baseline="middle">types</text><circle cx="358.48" cy="177.98" r="22" /><text x="358.48" y="177.98" text-anchor="middle" dominant-baseline="middle">unstoppabledomains</text><circle cx="359.62" cy="188.96" r="22" /><text x="359.62" y="188.96" text-anchor="middle" dominant-baseline="middle">vitejs</text></svg>